<svg id="Layer_1" data-name="Layer 1" xmlns="http://www.w3.org/2000/svg" viewBox="0 0 32 32"><defs><style>.cls-1{fill:#f4d70c;}</style></defs><title>Icon svg</title><rect width="32" height="32"/><path class="cls-1" d="M20.18,6.4a1,1,0,0,1,.6.82c0,.6-.78,1.08-1.74,1.08S17.3,7.82,17.3,7.22c0-.4.34-.74.84-.93L18,6.13a10.66,10.66,0,0,1-1.85-3.27.82.82,0,1,0-.3,0A10.66,10.66,0,0,1,14,6.13l-.15.17a1.09,1.09,0,0,1,.8.92c0,.6-.78,1.08-1.74,1.08s-1.74-.48-1.74-1.08a1,1,0,0,1,.63-.84C10.62,4.82,9.14,4,7.91,4.36a9.22,9.22,0,0,1,2.55,4c.06.18.12.36.17.54a11.41,11.41,0,0,1,.29,1.19,12.5,12.5,0,0,1,2.45-.62A18.17,18.17,0,0,1,16,9.24h0a18.17,18.17,0,0,1,2.63.19,12.5,12.5,0,0,1,2.45.62,11.41,11.41,0,0,1,.29-1.19c.05-.18.11-.36.17-.54a9.22,9.22,0,0,1,2.55-4C22.85,4,21.37,4.83,20.18,6.4ZM16,2.36h0Z"/><path class="cls-1" d="M20.78,12l.37-1.09a15.79,15.79,0,0,0-3.69-.74H17.4a17.66,17.66,0,0,0-6.55.63l.33,1.1a15.17,15.17,0,0,1,3.33-.59v1.17a4.13,4.13,0,0,0-3.08,4.07c0,2.22,1.49,3.45,3.08,4.46l1,.56.2.12.65.4a7.74,7.74,0,0,1,1.15.82,2.59,2.59,0,0,1,1.05,2,2.48,2.48,0,0,1-1.05,2.21V23.9a4.19,4.19,0,0,0-1.15-1v4.51a1.72,1.72,0,0,1-.33,0,1.67,1.67,0,0,1-.32,0V22.49l-.58-.34-.57-.34v5.26a2.59,2.59,0,0,1-1.16-2.32V24.4H11.19v.37A4.64,4.64,0,0,0,14,29.14a3,3,0,0,0,.5.19v.41l1.15,1V29.52h.65v1.26l1.15-1v-.4a3.39,3.39,0,0,0,.53-.2,4.56,4.56,0,0,0,2.68-4.28c0-2.37-1.57-3.61-3.21-4.62l-.84-.49-.31-.18-.65-.39a9,9,0,0,1-1.15-.82,2.47,2.47,0,0,1-.9-1.86,2,2,0,0,1,.9-1.79v2.51a3.49,3.49,0,0,0,1.15,1.1v-4a1.67,1.67,0,0,1,.32,0,1.72,1.72,0,0,1,.33,0v4.37l.67.39c.16.08.31.18.48.28V14.82a2.66,2.66,0,0,1,.87,2.09v.35h2.15l0-.39a4.49,4.49,0,0,0-3-4.39v-1.2A15.39,15.39,0,0,1,20.78,12Zm-4.47.3a1.58,1.58,0,0,0-.38,0,1.18,1.18,0,0,0-.27,0v-1h.65Z"/></svg>