/* XPM */
static char *_58298dbe92046e88e259c6709c0488e7ukLYbIHymnxM4Gx[] = {
/* columns rows colors chars-per-pixel */
"128 128 81 1 ",
"  c #000000",
". c #080701",
"X c #0B0A01",
"o c #110F02",
"O c #141202",
"+ c #191602",
"@ c #1D1A02",
"# c #221E03",
"$ c #252102",
"% c #2A2602",
"& c #2E2903",
"* c #332D03",
"= c #3C3503",
"- c #3F3804",
"; c #433B04",
": c #474004",
"> c #4C4304",
", c #504704",
"< c #544A05",
"1 c #594F05",
"2 c #5D5205",
"3 c #615605",
"4 c #665A06",
"5 c #695D05",
"6 c #6E6106",
"7 c #726506",
"8 c #766807",
"9 c #7B6D07",
"0 c #7F7007",
"q c #7E7008",
"w c #847507",
"e c #887707",
"r c #877807",
"t c #8B7B07",
"y c #827308",
"u c #887708",
"i c #8B7B08",
"p c #907F07",
"a c #948307",
"s c #9C8907",
"d c #948208",
"f c #998708",
"g c #9D8B08",
"h c #A18E08",
"j c #A59209",
"k c #A99509",
"l c #AE9909",
"z c #B29D09",
"x c #B6A009",
"c c #BBA40A",
"v c #BEA90A",
"b c #C1AB09",
"n c #C3AC0A",
"m c #C4AD0A",
"M c #C7B00A",
"N c #C8B00A",
"B c #CEB60B",
"V c #D0B70B",
"C c #D1B80B",
"Z c #D4BA0B",
"A c #D6BC0B",
"S c #D8BF0B",
"D c #D9C00B",
"F c #DCC20B",
"G c #DCC30C",
"H c #E1C60B",
"J c #E1C70C",
"K c #E3C80B",
"L c #E6CB0B",
"P c #E3C90C",
"I c #E5CB0C",
"U c #E7CC0C",
"Y c #EACE0C",
"T c #EFD30B",
"R c #EBD00C",
"E c #EFD30C",
"W c #F1D50B",
"Q c #F0D30C",
"! c #F3D70C",
"~ c #F4D70C",
"^ c #F4D70D",
/* pixels */
"                                                                                                                                ",
"                                                                                                                                ",
"                                                                                                                                ",
"                                                                                                                                ",
"                                                                                                                                ",
"                                                                                                                                ",
"                                                                                                                                ",
"                                                                                                                                ",
"                                                               OO                                                               ",
"                                                             %M!!N%                                                             ",
"                                                            XA!^^^DX                                                            ",
"                                                            -^^^^^^;                                                            ",
"                                                            >!^^^^^>                                                            ",
"                                                            +E^^^^!@                                                            ",
"                                                             2E^^T3                                                             ",
"                                                              &BC*                                                              ",
"                                                               HP.                                                              ",
"                                                              3^^4                                                              ",
"                                                              c^!v                                                              ",
"                                                             =^^^!;                                                             ",
"                                                             l!^^!z                                                             ",
"                               5zvly;X                      =!^^^^^;                      X;ylvz6                               ",
"                               #C^^^!I7o                   .n!^^^^!M.                   o6I!^^^A$                               ",
"                                @Z^^^!^G2                  4^^^^^^!!5                  1F!!^^^A@                                ",
"                                 #I^^^^^!hX               OJ^^^^^^^^K+               .g!!^^^^L$                                 ",
"                                  =E!^^^!!m+              k!^^^^^^^^^l              +b^^^^^^E;                                  ",
"                                   7^^^^^^^Z@            3!^^^^^^^^^^!4            @V!^^^^^!8                                   ",
"                                    x!^^^^^^CO          &E^^^^^^^^^^^^!*          OB^^^^^^^c                                    ",
"                                    #Y^^^^^^^m.        oC^^^^^^^^^^^^^^Zo        .b^^^^^^^R#                                    ",
"                                     6^^^^^^!!p        5E!^^^^^^^^^^^^^L3        d!!^^^^^!7                                     ",
"                                     .C^^^^^!b@         %B^^^^^^^^^^^^c+         *C^^^^^^ZX                                     ",
"                                      <^^^^^AX           #L^^^^^^^^^^Bo           #U^^^^^1                                      ",
"                                       b^^^^6             d^^^^^^^^^!8             f!^^!m                                       ",
"                                       1^^^!<             w^^^^^^^^^!4             y!^^!2                                       ",
"                                        C^^!j             v^^^^^^^^^!g             m^^^A                                        ",
"                                        7!^^!2           0^^^^^^^^^^^!<           y^^^!8                                        ",
"                                        OE^^!!f@       $k!^^^^^^^^^^^^!d+       %l!!^^E+                                        ",
"                                         k^^^^^Ec81<29N!^^^^^^^^^^^^^^^^Ec81<29NQ^^^^^l                                         ",
"                                         ,^^^^^^^^^^^^^^^^^^^^^^^^^^^^^^^^^^^^^^^^^^^!<                                         ",
"                                         o!^^^^^^^^^^^^^^^^^^^^^^^^^^^^^^^^^^^^^^^^^^!O                                         ",
"                                          k^^^^^^^^^^^!^!^^^^^^^^^^!!!^!^^^^^^^^^^^^^l                                          ",
"                                          6!^^^^^^^^^!!LBckgdtwwwwtdgkcBI!!!^^!^^^^^^7                                          ",
"                                          *!^^^^!Exr6;O                  O;6izE!^^^^^=                                          ",
"                                           I^!x4=.                            .=4zW!Y.                                          ",
"                                           y<O         .O@$*=;>>;-*$@OX           O<w                                           ",
"                                                 +;20lDEE!!^^!!!^^^!!EEFzw3;@                                                   ",
"                                             &7fS^!^!!^^^^^^^^^^^^^^^^^^^!!!^Jh8=                                               ",
"                                          OhD^!!^^^^^^^^^^^^^^^^^^^^^^^^^^^^^^!!^Lk6o                                           ",
"                                           D^^^^^^^^^^^^^^^^^^^^^^^^^^^^^^^^^^^^^^^^c                                           ",
"                                           s^^^^^^^^^!!^!^^^^AllG^^^^!^!^^^^^^^^^^^!0                                           ",
"                                           <^^^^^^Dg94;@w^^^!e  k^^^!5+-49fC^!^!^^^!+                                           ",
"                                           .IEn8:+      y^^^^u  k^^^!5      O;5zE!!N                                            ",
"                                            =O          y^^^^s*=c^^^^5          X=t5                                            ",
"                                                       #k^^^^^!!!^^^^M7;.                                                       ",
"                                                    X5c!!^^^^^^^^^^^^^^!Ip&                                                     ",
"                                                  .9J^^^^^^^^^^^^^^^^^^^!^!l$                                                   ",
"                                                 ;A^^^^^^^^^^^^^^^^^^^^^^^^^E9.                                                 ",
"                                                9!!^^^^^^^^^^^^^^^^^^^^^^^^^^^zO                                                ",
"                                               s^^^^^^^^^^^^^^^^^^^^^^^^^^^^^^^Mo                                               ",
"                                              r^^^^^^^^^^^^^^^^^^^^^^^^^^^^^^^^^b.                                              ",
"                                             ,!^^^^^^^^^^^^^!BdrC^^^^!^^^^^^^^^^^i                                              ",
"                                            XP!^^^^^^^^^!!^^!e  k^^^!zN^!^^^^^^^^^=                                             ",
"                                            8^^^^^^^^^^zh^^^^u  k^^^!5 5!!^^^^^^^^m                                             ",
"                                            A^^^^^^^^^h.y^^^^u  k^^^^5  ;E^^^^^^^^!=                                            ",
"                                           %!^^^^^^^^CX y^^^^u  k^^^^5   7^^^^^^^^!g                                            ",
"                                           9^^^^^^^^^7  y^^^^u  k^^^^5   .A^^^^^^^^F                                            ",
"                                           d^^^^^^^^!O  y^^^^u  k^^^^5    i^^^^^^^^!@                                           ",
"                                           s^^^^^^^^Y   y^^^^u  k^^^^5    ;^^^^^^^^^3                                           ",
"                                           f^^^^^^^^E.  y^^^^u  k^^^^5    X!^^^^^^^^w                                           ",
"                                           r^^^^^^^^^1  y^^^^u  k^^^^5     Y^^^^^^^^t                                           ",
"                                           1!^^^^^^^^v  5^^^^u  k^^^^5     9wwwwwwww,                                           ",
"                                           XY!^^^^^^^^8  8E!^u  k^^^^5                                                          ",
"                                            l^^^^^^^^^!5  =N!w  k^^^^5                                                          ",
"                                            *!^^^^^^^^^!d.  56  k^^^^5                                                          ",
"                                             d!^^^^^^^^^^C;     k^^^^5                                                          ",
"                                             oB!^^^^^^^^^^!l&   >N!!^5                                                          ",
"                                              $D!^^^^^^^^^^^!j*   ;kE5                                                          ",
"                                               %A!^^^^^^^^^^!^^z>   #*                                                          ",
"                                                +x^^^^^^^^^^^^^^^B7X                                                            ",
"                                                 .0E^^^^^^^^^^^^^!^Pi#                                                          ",
"                                                   *b!^^^^^^^^^^^^^^^!g*                                                        ",
"                                                     3S^^^^^^^^^^^^^^^^!l=                                                      ",
"                                                      X5P^!^^^^^^^^^^^^^^!l$                                                    ",
"                                                        X5A^!^^^^^^^^^^^^^^ErX                                                  ",
"                                                           2b^!!^^^^^^^^^^^^^S=                                                 ",
"                                                        >=   ;j!^^^^^^^^^^^^^^!9                                                ",
"                                                        y!c>   %tE^^^^^^^^^^^^^!h.                                              ",
"                                                        y^^!C;   OwP^^^^^^^^^^^^^j.                                             ",
"                                                        y^^!^u  X  XiY^^^^^^^^^^^^t                                             ",
"                                                        y^^^^u  ha@  @j^^^^^^^^^^^!>                                            ",
"                                                        y^^^^u  k^EfO  >I^^^^^^^^^^A.                                           ",
"                                                        y^^^^u  k^^^I;  #B!^^^^^^^^!5                                           ",
"                                                        y^^^^u  k^^^^5   +C^^^^^^^^^c                                           ",
"                                                        y^^^^u  k^^^^5    *E^^^^^^^^!O                                          ",
"                                          @%%%%%%%%$    y^^^^u  k^^^^5     j^^^^^^^^!>                                          ",
"                                          h^^^^^^^^D    y^^^^u  k^^^^5     >^^^^^^^^^5                                          ",
"                                          d^^^^^^^^I    y^^^^u  k^^^^5     %!^^^^^^^!6                                          ",
"                                          w^^^^^^^^EX   y^^^^u  k^^^^5     *^^^^^^^^!5                                          ",
"                                          7^^^^^^^^!&   y^^^^u  k^^^^5     2^^^^^^^^!1                                          ",
"                                          >!^^^^^^^^r   y^^^^u  k^^^^5     j^^^^^^^^^#                                          ",
"                                          XY^^^^^^^^IO  y^^^^u  k^^^^5    @Y^^^^^^^^Z                                           ",
"                                           k^^^^^^^^^z  y^^^^u  k^^^^5    z!^^^^^^^^d                                           ",
"                                           ;!^^^^^^^^^gXy^^^^u  k^^^^5  .f^^^^^^^^^E$                                           ",
"                                            c!^^^^^^^^!Nl^^^^u  k^^^!5 =n!^^^^^^^^^h                                            ",
"                                            &!!^^^^^^^^^^!^^^r  k^^^!lc^!^^^^^^^^!Y@                                            ",
"                                             6^^^^^^^^^^^^^^^GclF^^^^!^^^^^^^^^^^!<                                             ",
"                                              d!^^^^^^^^^^^^^^^^^^^^^^^^^^^^^^^^!9                                              ",
"                                               p!^^^^^^^^^^^^^^^^^^^^^^^^^^^^^!!q                                               ",
"                                                5W^^^^^^^^^^^^^^^^^^^^^^^^^^^!E3                                                ",
"                                                 %c!^^^^^^^^^^^^^^^^^^^^^^^!!c$                                                 ",
"                                                   >m!!!!^^^^^^^^^^^^^^^^^^N,                                                   ",
"                                                     *fA^^^^^^^^!^^^^^^^Gg=                                                     ",
"                                                        i^^^^^^^W^^^^c8=                                                        ",
"                                                        y^^^^iXOz^^^^5                                                          ",
"                                                        y^^^^u  k^^^^5                                                          ",
"                                                        y!^^^u  k^^^!<                                                          ",
"                                                        @k^!^u  k!^B;                                                           ",
"                                                          >F^e  kE9X                                                            ",
"                                                           odw  8%                                                              ",
"                                                             .                                                                  ",
"                                                                                                                                ",
"                                                                                                                                ",
"                                                                                                                                ",
"                                                                                                                                ",
"                                                                                                                                ",
"                                                                                                                                ",
"                                                                                                                                ",
"                                                                                                                                "
};
