/* XPM */
static char *_6d73ee51be54de6aed02f5443ba762fsDadaSVl3DZQU0JQ[] = {
/* columns rows colors chars-per-pixel */
"32 32 180 2 ",
"   c black",
".  c #010100",
"X  c #020200",
"o  c #030300",
"O  c #040400",
"+  c #050400",
"@  c #FFEE0E",
"#  c #030200",
"$  c #E5CA0C",
"%  c #040300",
"&  c #020100",
"*  c #6F6206",
"=  c #6D6006",
"-  c #FFE60E",
";  c #544A04",
":  c #645805",
">  c #FFE20E",
",  c #7E6F07",
"<  c #211D02",
"1  c #FFE50E",
"2  c #ECD00D",
"3  c #FFE30E",
"4  c #DCC20C",
"5  c #C0A90A",
"6  c #F9DB0D",
"7  c #4B4204",
"8  c #918008",
"9  c #BBA50A",
"0  c #9D8A08",
"q  c #E9CD0C",
"w  c #928108",
"e  c #7F7007",
"r  c #060500",
"t  c #A69309",
"y  c #A79309",
"u  c #675B05",
"i  c #0F0D01",
"p  c #221E02",
"a  c #161301",
"s  c #E2C70C",
"d  c #F0D30D",
"f  c #1C1901",
"g  c #FDDF0D",
"h  c #FBDD0D",
"j  c #DBC10C",
"k  c #A99509",
"l  c #484004",
"z  c #CFB60B",
"x  c #5E5305",
"c  c #FFE90E",
"v  c #CBB30B",
"b  c #C6AE0B",
"n  c #6A5D06",
"m  c #FFEB0E",
"M  c #B19C09",
"N  c #D7BD0B",
"B  c #AE9909",
"V  c #FFEC0E",
"C  c #5D5205",
"Z  c #D2B90B",
"A  c #D4BB0B",
"S  c #FFED0E",
"D  c #010101",
"F  c #070700",
"G  c #080700",
"H  c #958408",
"J  c #968408",
"K  c #1A1701",
"L  c #141201",
"P  c #453D04",
"I  c #121001",
"U  c #4C4304",
"Y  c #4A4104",
"T  c #131101",
"R  c #151301",
"E  c #191601",
"W  c #FFFB0F",
"Q  c #534904",
"!  c #FFFA0F",
"~  c #4F4604",
"^  c #746606",
"/  c #554A04",
"(  c #F3D70D",
")  c #171401",
"_  c #151201",
"`  c #E7CB0C",
"'  c #4E4504",
"]  c #252102",
"[  c #483F04",
"{  c #E8CC0C",
"}  c #9E8B08",
"|  c #3D3603",
" . c #655905",
".. c #CAB20B",
"X. c #FFEA0E",
"o. c #F2D50D",
"O. c #322C03",
"+. c #665A05",
"@. c #FADC0D",
"#. c #090800",
"$. c #8B7A07",
"%. c #F8DA0D",
"&. c #0B0901",
"*. c #0C0B01",
"=. c #8A7A07",
"-. c #E9CE0C",
";. c #827207",
":. c #F5D80D",
">. c #F0D40D",
",. c #FFF50F",
"<. c #FFF90F",
"1. c #9A8808",
"2. c #978508",
"3. c #564C05",
"4. c #6C5F06",
"5. c #605405",
"6. c #817207",
"7. c #BAA40A",
"8. c #A28F09",
"9. c #FFE40E",
"0. c #FFE70E",
"q. c #A49109",
"w. c #B7A10A",
"e. c #B9A30A",
"r. c #FEE00E",
"t. c #564B05",
"y. c #887807",
"u. c #635705",
"i. c #3A3303",
"p. c #B5A00A",
"a. c #FFEF0E",
"s. c #B29D09",
"d. c #B49E0A",
"f. c #262202",
"g. c #7C6D07",
"h. c #776906",
"j. c #EFD30D",
"k. c #F7D90D",
"l. c #EBCF0C",
"z. c #625705",
"x. c #413A03",
"c. c #AB9609",
"v. c #B6A00A",
"b. c #272202",
"n. c #695C06",
"m. c #5F5305",
"M. c #5F5405",
"N. c #615505",
"B. c #312C03",
"V. c #6C6006",
"C. c #605505",
"Z. c #EFD20D",
"A. c #D9BF0C",
"S. c #FFF00E",
"D. c #AB9709",
"F. c #DDC30C",
"G. c #EBCF0D",
"H. c #AF9A09",
"J. c #8C7C07",
"K. c #574C05",
"L. c #BFA90A",
"P. c #F1D50D",
"I. c #C3AC0A",
"U. c #C5AE0A",
"Y. c #423A04",
"T. c #F3D60D",
"R. c #7B6D07",
"E. c #4D4404",
"W. c #736506",
"Q. c #4F4504",
"!. c #F4D70D",
"~. c #FFF00F",
"^. c #FFE10E",
"/. c #D6BD0B",
"(. c #D1B90B",
"). c #FCDE0D",
"_. c #F7DA0D",
"`. c #A89409",
"'. c #D3BA0B",
"]. c #E6CB0C",
/* pixels */
"                              X X                               ",
"                                                                ",
"                          &   8 8   &                           ",
"                X % .     X   y t   X     . % X                 ",
"              .       X   +    .:   +   X       .               ",
"          .   G J *     o     4 j     o     * H F   .           ",
"            X   7 @ 9 a     =.> > $.    R 9 @ 7   X             ",
"              O   e ! u   &.5 h h e.#.  = W ,   O               ",
"              .   T q O.    4.r.g 5.    | 2 I   .               ",
"                O   } %.8.7.9.- 0.3 w.q.@.0   O                 ",
"                o   ' s t 6.u.t.3.x e y $ ~   o                 ",
"                .   ) +.;.k B 5 p.M 1.u [ i   .                 ",
"                X   ] -.b J._.B Z.d.2.s q E   .                 ",
"                    o     Q.].v 2 D.i.  _ o                     ",
"                  X   f (.~.6 ).!.V S.s..   .                   ",
"                  .   5 S Z 2 R.'.`.N a.w   o                   ",
"                X   b.T.^.E.A : /.Y.m.<.( L   .                 ",
"                X   p P.3 C M W.4 K.a k 0 K   .                 ",
"                  X   c.@ $ , < I.x         .                   ",
"                  .   *.v.V c L., f.  # r                       ",
"                    X     z.U.m @ A.h.O   #                     ",
"                    . r X   n.V.H.1 S z <   X                   ",
"                  .       o G.M.N.* F.m z O   .                 ",
"                .   < ; x.# 4 n $ l B.6 3 l   o                 ",
"                O   : ,.d i N n A ; # j.1 ;   %                 ",
"                X   p o.g y.j C.Z C g.- d f   &                 ",
"                  o   ^ X.- 6 b $ l.1 c =   o                   ",
"                    .   / ..>.> k.:.v Q   .                     ",
"                      X     { w ` =     X                       ",
"                        +   Y P U +   O                         ",
"                          .         .                           ",
"                            o X o .                           D "
};
