/* XPM */
static char *_5aa34347e034c82b679a0e2b0f3d087T36TlWLYO4ZDIUY0[] = {
/* columns rows colors chars-per-pixel */
"64 64 74 1 ",
"  c #000000",
". c #080700",
"X c #0B0901",
"o c #110F01",
"O c #151201",
"+ c #191602",
"@ c #1C1902",
"# c #221E02",
"$ c #252102",
"% c #2A2503",
"& c #2E2902",
"* c #342E03",
"= c #373003",
"- c #3B3404",
"; c #3F3804",
": c #433B03",
"> c #483F04",
", c #4C4304",
"< c #504705",
"1 c #554C04",
"2 c #594F05",
"3 c #5C5105",
"4 c #615506",
"5 c #655905",
"6 c #6A5E06",
"7 c #6E6106",
"8 c #736606",
"9 c #766906",
"0 c #7C6E07",
"q c #796B08",
"w c #7F7006",
"e c #5B5B5B",
"r c #837407",
"t c #8C7C07",
"y c #8D7D08",
"u c #907F07",
"i c #907F08",
"p c #958407",
"a c #998707",
"s c #948208",
"d c #998708",
"f c #9C8A08",
"g c #A49109",
"h c #AA9609",
"j c #AE9909",
"k c #B39E09",
"l c #B6A109",
"z c #B9A309",
"x c #B9A40A",
"c c #BCA50A",
"v c #C7AF0A",
"b c #CBB30A",
"n c #CFB60B",
"m c #D0B70B",
"M c #D3BA0A",
"N c #D7BE0B",
"B c #D7BD0C",
"V c #D8BE0B",
"C c #D9C00B",
"Z c #DDC30B",
"A c #DDC40B",
"S c #DBC10C",
"D c #DDC30C",
"F c #DFC50C",
"G c #E1C60B",
"H c #E0C60C",
"J c #E6CB0C",
"K c #E9CD0C",
"L c #EBD00C",
"P c #EED20C",
"I c #F0D30D",
"U c #F3D60C",
"Y c #F4D70D",
"T c #959595",
/* pixels */
"Teeeeeeeeeeeeeeeeeeeeeeeeeeeeeeeeeeeeeeeeeeeeeeeeeeeeeeeeeeeeeee",
"e                                                               ",
"e                                                               ",
"e                                                               ",
"e                              %,X                              ",
"e                             =IYg                              ",
"e                             9YYU                              ",
"e                             XvP1                              ",
"e                              :j                               ",
"e                              gU$                              ",
"e               OO            $PUy            .@.               ",
"e              .hUNrX         hYYY%         :kPK-               ",
"e               XzYYN*       ,UYYYx       XsUYP:                ",
"e                +CYYU;     +NYYYYY7     .kYYU7                 ",
"e                 >UYYP*    lYYYYYYP;    jYYYl                  ",
"e                  hYYJ*    <PYYYYYdO   .kYYU&                  ",
"e                  %UY6      sYYYYH.     oUUs                   ",
"e                   kUu      jYYYYK+     *UY*                   ",
"e                   ,YUpO  $gYYYYYYM<  .4FYz                    ",
"e                   .JYYUGJYYYYYYYYYYPZPYYY8                    ",
"e                    yYYYYYUYUPLKPIUYYYYYYPX                    ",
"e                    5UUby71#      X:4rgPUn                     ",
"e                    +3@  .+,90w005&X   .:,                     ",
"e                    .*qlBUYYYYYYYYYUJnp3@                      ",
"e                    ;YYYYYYYYYUUYYYYYYYYUy                     ",
"e                     CYAi93gYJXrYG25rjIYY:                     ",
"e                     *#    0YPwcYSX   .=7X                     ",
"e                         ;gJYYYYYYKz<.                         ",
"e                       @lYYYYYYYYYYYYv&                        ",
"e                      &FYYYYYYYYYYYYYYH-                       ",
"e                     XBYYYYYYP0cYUUYYYYH@                      ",
"e                     tYYYYClYJ.rYV&vYYYUd                      ",
"e                     nYYYU*0YJ.rYV +SYYYPO                     ",
"e                    .YYYYN 0YJ.rYV  tYYYY:                     ",
"e                    XYYYYN 0YJ.rYV  6YYYY0                     ",
"e                     DYYYP%3UJ.rYV  $rrrr:                     ",
"e                     aYYYYM%<n.rYV                             ",
"e                     @JYYYYF5. rUV                             ",
"e                      ,PYYYYYn1O2h                             ",
"e                       -SYYYYYYG5+                             ",
"e                        +pUYYYYYYPt$                           ",
"e                          *jUYYYYYUUpO                         ",
"e                           .%gKYYYYYYJ2                        ",
"e                           0f*OiGYYYYYYs                       ",
"e                           0YJ.+XqIYYYYYr                      ",
"e                           0YJ.rb:@zUYYYU&                     ",
"e                           0YJ.rYN .lYYYYf                     ",
"e                    =3333O 0YJ.rYV  OPYYYn                     ",
"e                    yYYYY= 0YJ.rYV   MYYYC                     ",
"e                    9YYYY, 0YJ.rYV   JYYYm                     ",
"e                    ,UYYYl 0YJ.rYV  1YYYYh                     ",
"e                     NYYYUi0YJ.rYV *AYYYU>                     ",
"e                     <UYYYYUYK@rYJhUYYYYj                      ",
"e                      rUYYYYYYYUYYYYYYYn+                      ",
"e                       7KYYYYYYYYYYYUYxO                       ",
"e                        %sPUYYYYYYYYb3                         ",
"e                          ofYPlSYJ5*                           ",
"e                           0YJ.rYV                             ",
"e                           -MJ.rV1                             ",
"e                            .8.-o                              ",
"e                                                               ",
"e                                                               ",
"e                                                               ",
"e                                                               "
};
