/* XPM */
static char *f1dc5d5dddfb475fa4701b90df6f8344LXGDCFbijJpWyuN6[] = {
/* columns rows colors chars-per-pixel */
"16 16 72 1 ",
"  c black",
". c #010100",
"X c #020200",
"o c #030300",
"O c #020100",
"+ c #040300",
"@ c #060500",
"# c #030200",
"$ c #403903",
"% c #877707",
"& c #463E04",
"* c #2B2602",
"= c #D3BA0B",
"- c #D2B90B",
"; c #716306",
": c #D8BE0B",
"> c #9F8C08",
", c #DAC00C",
"< c #191601",
"1 c #1B1701",
"2 c #655905",
"3 c #847407",
"4 c #AB9609",
"5 c #C4AC0A",
"6 c #090800",
"7 c #8F7E08",
"8 c #070600",
"9 c #F5D80D",
"0 c #A69209",
"q c #AF9A09",
"w c #F2D50D",
"e c #918008",
"r c #C8B10B",
"t c #040400",
"y c #625605",
"u c #AD9809",
"i c #221E02",
"p c #CEB50B",
"a c #7A6C07",
"s c #0A0801",
"d c #8D7C07",
"f c #7A6C06",
"g c #4A4204",
"h c #7B6C07",
"j c #2C2702",
"k c #4B4204",
"l c #7C6E07",
"z c #332D03",
"x c #726506",
"c c #615605",
"v c #917F08",
"b c #B7A10A",
"n c #938108",
"m c #D0B70B",
"M c #D1B80B",
"N c #BFA80A",
"B c #A79309",
"V c #CDB40B",
"C c #756706",
"Z c #322C03",
"A c #716406",
"S c #1D1A02",
"D c #1D1902",
"F c #7F7007",
"G c #8C7B07",
"H c #B8A20A",
"J c #9A8808",
"K c #D7BE0B",
"L c #E4C90C",
"P c #9B8908",
"I c #B49F0A",
"U c #E1C70C",
/* pixels */
"    #. oo .#    ",
"     O && O     ",
"   @$8 cy @$@   ",
"  X %d =m 7% X  ",
"  . sBgMVku6 .  ",
"   o hNnvbx o   ",
"   . *fU=;j .   ",
"   X z,,-:* X   ",
"   t >KFCJl o   ",
"   X ZLHA  .    ",
"    o SI:PX .   ",
"     iDG;-e +   ",
"   + 0p>aq4 +   ",
"   O 1r9w5< O   ",
"    X  32  .    ",
"     X   .X     "
};
